<svg 
 xmlns="http://www.w3.org/2000/svg"
 xmlns:xlink="http://www.w3.org/1999/xlink"
 width="1095px" height="467px">
<path fill-rule="evenodd"  opacity="0.2" fill="rgb(0, 0, 0)"
 d="M90.0,163.0 C102.147,162.602 108.659,151.37 117.999,147.0 C125.782,143.635 135.205,140.705 143.0,138.0 C147.666,137.333 152.333,136.666 157.0,135.999 C161.494,134.290 167.828,130.469 173.0,129.0 C195.773,122.530 224.284,132.510 245.0,126.999 C258.814,123.325 272.834,117.137 286.0,113.0 C289.666,112.666 293.333,112.333 297.0,111.999 C319.330,104.711 345.244,98.116 367.999,90.999 C371.666,90.999 375.333,90.999 379.0,90.999 C392.528,87.474 407.33,82.210 419.999,77.999 C424.332,77.666 428.667,77.333 433.0,76.999 C445.933,73.291 459.761,66.360 471.999,61.999 C483.82,58.51 492.585,58.33 502.999,53.999 C510.128,51.239 518.625,45.647 526.0,42.999 C528.999,42.666 532.0,42.333 535.0,42.0 C558.120,33.658 585.101,25.730 609.999,18.999 C616.774,17.168 621.720,18.834 628.0,16.999 C641.653,13.12 658.766,9.631 673.999,5.999 C686.332,5.999 698.667,5.999 711.0,5.999 C725.12,2.798 747.36,-1.299 759.999,0.999 C769.665,0.999 779.334,0.999 789.0,0.999 C815.944,7.818 847.882,14.625 874.999,23.999 C876.999,23.999 879.0,23.999 880.999,23.999 C896.508,29.80 913.791,30.847 929.0,36.999 C982.878,58.796 1032.665,89.361 1064.0,133.999 C1065.666,135.333 1067.333,136.666 1069.0,138.0 C1077.240,149.931 1087.838,171.218 1091.999,185.999 C1091.666,196.332 1091.333,206.667 1090.999,216.999 C1092.933,225.358 1095.880,244.752 1092.999,256.0 C1091.102,263.410 1088.824,272.645 1086.999,280.0 C1086.666,284.666 1086.333,289.333 1085.999,293.999 C1080.455,312.722 1071.968,332.33 1064.999,349.0 C1062.547,354.970 1064.831,358.481 1060.999,364.0 C1049.744,380.211 1030.122,391.576 1013.999,403.0 C999.899,412.990 989.750,428.598 972.999,435.999 C964.213,439.882 954.444,443.782 945.999,447.0 C937.585,450.205 929.732,449.56 920.999,452.0 C912.444,454.883 903.590,459.671 894.999,462.0 C863.872,470.438 824.745,464.869 791.999,460.0 C789.382,459.610 785.44,461.913 780.999,460.999 C771.51,458.752 759.495,458.71 750.999,456.0 C738.422,452.933 729.3,456.374 717.999,454.999 C713.292,454.411 706.827,452.117 702.0,451.0 C697.412,449.938 693.979,452.739 691.999,453.0 C689.808,453.288 683.888,451.125 680.0,452.0 C669.45,454.463 644.379,457.147 634.0,454.999 C616.639,451.407 598.729,454.129 581.0,450.0 C566.668,449.666 552.331,449.333 537.999,449.0 C531.402,447.325 519.785,449.55 510.999,447.0 C476.840,439.8 434.357,438.349 402.0,429.999 C398.239,429.29 392.220,430.481 390.0,431.0 C377.1,430.666 363.998,430.333 350.999,429.999 C342.948,428.168 333.19,430.61 324.0,428.0 C290.114,420.254 254.990,424.996 215.0,425.0 C194.983,425.1 172.390,427.43 154.999,423.0 C146.366,420.992 117.689,423.826 108.999,425.0 C96.291,426.716 55.180,417.621 48.0,413.0 C20.197,395.107 11.457,379.259 2.0,343.0 C2.333,335.0 2.666,326.999 3.0,318.999 C0.878,310.371 -1.98,288.457 3.0,278.999 C22.340,234.372 47.574,187.489 90.0,166.0 C90.0,165.0 90.0,163.999 90.0,163.0 Z"/>
</svg>