<svg 
 xmlns="http://www.w3.org/2000/svg"
 xmlns:xlink="http://www.w3.org/1999/xlink"
 width="483px" height="463px">
<path fill-rule="evenodd"  opacity="0.2" fill="rgb(0, 0, 0)"
 d="M291.0,0.0 C324.190,4.126 362.959,3.703 392.0,15.0 C396.147,16.613 399.891,20.950 404.0,22.999 C443.333,42.625 459.17,61.173 475.0,103.999 C485.185,131.292 484.910,189.739 475.999,218.0 C475.999,220.333 475.999,222.666 475.999,224.999 C473.998,231.229 470.688,240.465 469.0,246.999 C469.0,250.666 469.0,254.333 469.0,258.0 C465.285,270.135 459.657,283.692 455.0,295.0 C452.860,300.195 453.196,304.831 451.0,310.0 C439.52,338.119 419.584,361.420 402.999,384.999 C390.307,403.45 379.550,423.24 361.999,435.999 C347.469,446.742 302.645,467.947 272.0,461.0 C236.646,452.985 207.895,446.312 179.0,433.0 C174.738,431.36 170.933,426.336 167.0,424.0 C151.122,414.568 135.71,409.9 119.999,398.999 C106.771,390.215 94.0,378.768 80.999,370.0 C71.517,363.604 62.137,357.724 53.999,350.0 C50.662,346.831 47.808,341.542 43.999,338.999 C39.467,335.974 33.574,336.897 30.999,332.0 C29.465,329.80 30.339,326.592 28.999,324.0 C26.291,318.756 21.203,312.471 18.999,306.999 C18.0,302.667 16.999,298.332 15.999,293.999 C14.307,290.211 8.187,287.212 6.999,284.999 C6.837,284.698 8.639,280.960 7.999,278.999 C7.518,277.522 4.476,275.186 3.999,273.999 C3.999,271.333 3.999,268.666 3.999,265.999 C-1.718,246.736 2.391,235.548 1.999,214.999 C1.968,213.327 4.186,209.165 4.999,205.999 C6.770,199.110 4.203,192.175 6.999,183.999 C9.19,178.97 13.947,170.54 15.999,163.999 C30.109,122.381 48.489,85.84 80.0,61.0 C82.999,57.0 86.0,52.999 88.999,48.999 C93.723,45.540 99.93,44.284 103.999,40.999 C107.131,38.903 109.51,33.939 112.0,31.999 C114.235,30.530 117.107,32.219 119.999,30.999 C128.159,27.560 137.744,21.419 145.999,17.999 C152.868,15.154 158.734,16.329 165.999,13.999 C171.325,12.292 178.279,8.530 182.999,6.999 C192.509,3.916 204.3,7.391 214.0,4.999 C222.785,2.898 238.444,1.500 249.0,0.999 C258.353,0.556 285.81,3.675 291.0,0.0 Z"/>
</svg>