<svg 
 xmlns="http://www.w3.org/2000/svg"
 xmlns:xlink="http://www.w3.org/1999/xlink"
 width="563px" height="548px">
<path fill-rule="evenodd"  opacity="0.2" fill="rgb(0, 0, 0)"
 d="M157.999,10.0 C164.862,9.882 170.999,0.0 170.999,0.0 C170.999,0.0 197.644,10.983 217.999,11.999 C223.332,11.999 228.667,11.999 234.0,11.999 C242.507,14.726 251.277,20.681 259.0,24.0 C264.976,26.568 270.923,26.618 276.0,30.0 C278.521,31.679 281.93,35.620 284.0,37.0 C287.681,38.747 290.174,37.514 294.0,39.0 C297.945,40.532 303.85,44.624 307.0,46.0 C313.893,48.421 318.734,47.260 324.999,50.0 C332.726,53.378 358.0,65.0 358.0,65.0 L371.0,51.0 C371.0,51.0 390.644,62.0 399.0,62.0 C405.81,71.293 415.93,78.367 423.999,85.0 C429.666,90.999 435.333,97.0 440.999,103.0 C445.332,106.999 449.667,111.0 454.0,115.0 C454.0,116.999 454.0,119.0 454.0,120.999 C455.533,126.387 457.985,132.617 461.0,136.999 C469.114,148.794 482.851,157.658 489.0,171.999 C489.0,180.332 489.0,188.667 489.0,196.999 C490.875,205.398 492.976,213.979 495.0,222.0 C496.474,227.842 494.913,231.537 497.0,236.0 C504.999,243.999 513.0,252.0 520.999,259.999 C527.857,271.8 535.740,280.949 542.0,291.999 C544.45,295.611 542.371,299.494 544.0,303.999 C545.113,307.80 548.912,310.364 550.0,314.0 C553.232,324.807 549.934,335.322 553.0,347.0 C554.864,354.101 558.260,362.988 559.999,370.0 C562.994,382.70 561.997,395.686 562.0,409.999 C562.9,458.361 557.233,478.766 533.0,502.999 C526.393,509.606 520.8,521.280 508.0,521.999 C496.278,529.64 476.402,521.561 461.0,525.0 C452.447,526.909 443.907,530.82 437.0,532.0 C428.0,532.0 418.999,532.0 409.999,532.0 C403.818,533.653 392.74,535.377 384.999,536.999 C377.906,538.626 367.877,536.704 362.0,537.999 C350.667,538.333 339.332,538.666 328.0,539.0 C307.367,544.569 253.339,550.781 226.999,544.999 C202.669,544.999 178.330,544.999 153.999,544.999 C138.47,541.359 117.111,544.313 101.0,539.999 C95.662,538.570 90.682,535.497 84.0,533.999 C69.1,533.999 53.998,533.999 38.999,533.999 C30.334,525.334 21.665,516.665 12.999,507.999 C12.333,504.666 11.666,501.332 10.999,497.999 C8.578,493.213 3.879,487.804 1.999,481.999 C0.229,475.113 1.0,464.451 0.999,455.999 C0.999,433.821 1.637,416.969 8.0,402.0 C9.780,397.810 13.732,395.329 16.0,391.999 C22.71,383.84 24.952,371.635 26.999,358.999 C27.830,353.874 22.274,337.788 20.999,331.999 C20.999,322.667 20.999,313.332 20.999,303.999 C20.999,280.160 21.1,257.14 25.999,238.0 C28.63,230.149 27.506,221.148 29.0,215.0 C29.0,209.0 29.0,202.999 29.0,196.999 C30.173,194.392 34.654,192.180 35.999,189.0 C39.328,181.128 36.368,172.694 38.999,162.999 C42.100,151.578 49.203,141.850 52.999,131.0 C55.763,123.102 54.839,114.879 57.999,108.0 C61.545,100.283 70.463,89.682 76.0,83.0 C79.999,79.333 84.0,75.666 87.999,71.999 C89.666,67.0 91.333,61.999 93.0,57.0 C106.331,43.668 119.668,30.332 132.999,17.0 C140.983,12.845 152.55,15.804 157.999,10.0 Z"/>
</svg>