<svg 
 xmlns="http://www.w3.org/2000/svg"
 xmlns:xlink="http://www.w3.org/1999/xlink"
 width="547px" height="453px">
<path fill-rule="evenodd"  opacity="0.2" fill="rgb(0, 0, 0)"
 d="M352.999,0.999 C378.769,0.506 400.468,3.328 418.999,9.0 C421.666,9.0 424.333,9.0 427.0,9.0 C435.948,11.489 445.854,15.246 454.0,17.999 C459.881,19.988 464.615,19.298 470.0,22.0 C492.887,33.481 510.183,48.365 523.999,68.999 C526.405,72.592 530.746,76.215 533.0,79.999 C543.254,97.219 550.279,130.526 544.0,156.999 C540.931,169.934 544.261,182.882 541.0,195.0 C535.695,214.705 531.613,235.486 523.999,253.999 C511.261,284.977 497.428,311.427 479.0,336.0 C473.582,343.222 465.490,345.670 457.999,351.0 C457.0,352.666 455.999,354.333 455.0,355.999 C444.633,364.594 434.752,372.904 423.999,381.0 C405.257,395.110 390.547,414.267 370.0,427.0 C351.268,438.606 332.933,438.711 308.999,445.0 C298.821,447.674 286.636,450.996 277.0,448.999 C272.447,448.56 262.79,450.48 258.0,450.999 C245.230,453.978 231.302,450.222 221.999,447.999 C211.334,447.333 200.665,446.666 189.999,446.0 C169.343,441.43 149.220,437.15 131.999,429.0 C127.607,426.955 117.99,420.704 111.999,423.999 C110.666,422.333 109.333,420.666 107.999,419.0 C104.10,416.566 99.227,416.108 96.0,412.999 C94.652,411.702 94.618,409.62 92.999,408.0 C91.0,407.666 88.999,407.333 87.0,407.0 C84.172,405.269 81.536,399.404 78.999,396.999 C74.190,392.441 63.648,388.173 59.999,382.999 C59.666,381.333 59.333,379.666 58.999,378.0 C56.579,374.146 47.794,369.628 44.999,366.0 C38.128,357.78 34.28,346.802 26.999,338.0 C25.666,337.333 24.333,336.666 22.999,336.0 C20.803,333.63 21.18,329.82 18.999,326.0 C17.666,325.0 16.333,323.999 15.0,323.0 C15.0,321.0 15.0,318.999 15.0,316.999 C10.165,303.70 -2.919,279.662 1.0,264.999 C0.666,260.0 0.333,254.999 0.0,249.999 C2.362,238.224 2.819,223.243 6.0,211.999 C6.0,210.0 6.0,207.999 6.0,206.0 C20.812,170.116 42.864,139.467 73.0,118.999 C77.394,116.15 81.838,115.63 85.999,112.0 C89.11,109.782 89.738,106.71 92.0,102.999 C96.991,96.221 109.972,87.306 116.999,81.999 C118.691,80.723 119.431,77.174 121.0,76.0 C122.333,76.0 123.666,76.0 125.0,76.0 C130.520,73.66 136.666,67.365 141.999,63.999 C148.857,59.673 156.506,58.409 164.0,54.999 C167.917,53.217 172.260,48.517 175.999,47.0 C214.445,31.398 255.323,21.213 297.0,8.0 C310.212,3.811 326.770,5.133 340.0,1.999 C344.383,0.961 349.942,2.927 352.999,0.999 Z"/>
</svg>