<svg 
 xmlns="http://www.w3.org/2000/svg"
 xmlns:xlink="http://www.w3.org/1999/xlink"
 width="925px" height="470px">
<path fill-rule="evenodd"  opacity="0.2" fill="rgb(0, 0, 0)"
 d="M4.999,162.0 C8.700,153.884 16.772,145.868 20.0,136.999 C20.666,133.0 21.333,128.999 21.999,125.0 C22.993,122.894 27.223,116.482 29.0,114.0 C30.666,113.0 32.333,111.999 33.999,111.0 C33.999,109.333 33.999,107.666 33.999,105.999 C61.858,65.677 109.434,45.582 162.0,29.999 C174.449,26.309 187.274,29.97 201.0,26.0 C211.406,23.651 226.861,25.5 238.999,25.0 C252.294,24.994 266.673,23.206 277.999,26.0 C284.777,27.671 296.744,26.4 302.0,25.0 C306.601,24.120 326.304,25.902 330.999,27.0 C337.999,27.0 345.0,27.0 352.0,27.0 C361.891,29.330 374.304,30.489 385.0,32.999 C399.998,32.999 415.1,32.999 430.0,32.999 C443.43,35.950 478.688,41.430 492.999,38.0 C510.487,33.808 523.671,27.757 539.0,23.0 C546.117,20.791 551.778,21.649 558.0,18.999 C564.191,16.363 569.11,10.548 575.0,8.0 C584.979,3.752 607.636,6.444 615.999,1.0 C630.756,0.618 640.168,3.305 650.999,6.0 C666.120,9.761 681.212,9.400 693.999,15.0 C703.597,19.202 712.238,27.151 721.0,32.0 C758.108,52.533 787.333,80.640 825.0,100.0 C830.549,102.852 835.811,102.688 841.0,105.999 C845.623,108.950 851.31,113.968 856.0,117.0 C861.80,120.100 867.153,120.670 872.0,124.0 C873.999,126.333 876.0,128.666 878.0,131.0 C882.116,133.981 887.753,135.252 891.0,139.0 C891.0,139.999 891.0,141.0 891.0,142.0 C892.666,142.999 894.333,144.0 895.999,145.0 C895.999,145.999 895.999,147.0 895.999,148.0 C897.666,148.999 899.333,150.0 901.0,150.999 C901.333,152.666 901.666,154.333 902.0,156.0 C903.666,156.999 905.333,158.0 906.999,159.0 C908.960,162.539 908.311,165.759 910.0,168.999 L2.844,168.999 C3.445,166.241 4.164,163.832 4.999,162.0 ZM0.711,187.999 L919.681,187.999 C921.159,191.96 923.355,194.176 923.0,196.999 C922.61,204.452 922.766,213.736 924.0,221.0 C924.943,226.550 922.173,233.818 923.0,238.999 C923.533,242.342 925.128,250.95 924.0,255.0 C922.712,260.598 920.510,272.574 919.999,277.0 C919.868,278.140 921.820,279.617 921.0,281.999 C917.774,291.370 912.32,297.954 908.0,305.999 C904.54,313.870 905.622,327.427 902.999,331.999 C883.340,366.268 849.882,399.701 819.0,422.999 C816.860,424.613 813.202,423.625 810.999,424.999 C796.712,433.916 782.421,438.979 763.999,444.999 C761.174,445.923 757.744,449.45 755.0,449.999 C753.0,449.999 750.999,449.999 749.0,449.999 C746.851,450.915 743.188,455.296 741.0,455.999 C739.0,455.666 736.999,455.333 735.0,455.0 C728.380,456.559 721.213,460.245 713.999,461.999 C706.884,463.730 700.233,461.123 695.0,461.999 C674.816,465.379 648.201,464.178 632.0,467.999 C624.814,469.694 617.812,465.987 612.0,464.999 C607.155,464.176 599.821,466.628 596.999,466.999 C590.407,467.867 578.243,463.826 570.0,466.0 C555.872,469.725 527.38,470.667 510.999,466.999 C498.544,464.151 480.436,467.134 466.999,463.999 C460.334,463.999 453.666,463.999 446.999,463.999 C432.81,460.29 410.600,460.752 395.0,455.999 C390.366,454.588 383.8,457.309 380.0,456.999 C374.976,456.483 368.582,453.191 363.999,452.0 C359.0,452.0 353.999,452.0 349.0,452.0 C341.732,449.634 329.242,446.714 322.0,444.0 C315.603,441.602 310.300,444.840 305.0,442.999 C297.770,440.489 286.643,438.567 279.0,436.999 C277.333,437.333 275.666,437.666 273.999,438.0 C271.964,437.614 268.489,434.577 266.999,433.999 C263.0,433.666 258.999,433.333 254.999,432.999 C250.602,431.68 244.549,427.560 238.999,425.999 C236.0,425.999 232.999,425.999 230.0,425.999 C227.205,424.884 220.893,421.65 217.999,419.999 C216.0,419.999 213.999,419.999 212.0,419.999 C210.661,419.394 208.955,416.598 206.999,415.999 C196.832,412.889 187.270,414.967 176.999,411.999 C173.521,410.995 167.427,408.75 163.999,407.0 C161.0,407.0 157.999,407.0 154.999,407.0 C153.800,406.511 151.472,403.535 149.999,402.999 C144.464,400.987 139.842,403.78 133.999,401.0 C129.312,399.332 125.192,393.789 120.999,391.999 C108.344,386.598 98.431,382.315 87.999,374.999 C83.781,372.41 79.345,366.549 74.999,363.999 C68.556,360.218 62.256,357.724 58.0,351.999 C55.434,348.550 54.549,344.542 51.999,340.999 C46.882,333.888 39.244,327.33 34.999,319.0 C31.745,312.841 31.450,306.676 27.999,300.999 C25.752,297.302 21.789,293.61 20.0,289.0 C14.733,277.47 14.857,264.535 11.0,250.999 C7.715,239.475 3.443,230.252 1.0,218.999 C1.333,214.667 1.666,210.332 1.999,206.0 C0.891,202.140 0.481,195.308 0.711,187.999 Z"/>
</svg>