<svg 
 xmlns="http://www.w3.org/2000/svg"
 xmlns:xlink="http://www.w3.org/1999/xlink"
 width="415px" height="310px">
<path fill-rule="evenodd"  opacity="0.2" fill="rgb(0, 0, 0)"
 d="M218.0,1.0 C255.285,0.412 289.686,7.56 316.0,17.0 C322.569,19.482 328.412,19.624 333.999,23.0 C340.555,26.960 346.648,33.54 353.0,37.0 C366.36,45.98 376.997,51.165 384.999,63.999 C397.108,83.418 418.740,129.875 414.0,161.0 C410.985,180.791 400.899,200.381 391.999,215.0 C379.413,235.676 369.933,260.913 351.0,274.999 C345.223,279.297 339.34,281.803 332.999,285.999 C322.158,293.538 311.399,301.700 297.0,306.0 C286.377,309.171 265.260,310.11 254.0,307.999 C247.802,306.892 238.687,310.755 230.999,308.999 C206.944,303.504 183.45,299.667 162.0,291.999 C143.385,285.217 124.216,282.657 106.0,274.999 C63.601,257.177 31.314,233.265 12.999,190.999 C4.864,172.224 -3.358,146.285 3.0,118.0 C5.969,104.789 7.977,94.285 12.999,83.0 C32.931,38.213 83.686,20.609 134.999,7.0 C152.664,5.666 170.335,4.333 187.999,2.999 C196.368,2.537 212.681,4.324 218.0,1.0 Z"/>
</svg>