<svg 
 xmlns="http://www.w3.org/2000/svg"
 xmlns:xlink="http://www.w3.org/1999/xlink"
 width="763px" height="914px">
<path fill-rule="evenodd"  opacity="0.2" fill="rgb(0, 0, 0)"
 d="M381.0,0.0 C388.113,0.344 395.410,0.569 401.999,1.0 C404.333,0.666 406.666,0.333 409.0,0.0 C431.313,4.661 448.241,18.883 467.0,27.0 C474.456,30.226 479.704,28.519 485.999,30.0 C492.307,31.483 504.954,38.567 511.0,41.999 C512.864,43.59 519.71,51.172 520.0,53.0 C520.0,54.666 520.0,56.333 520.0,57.999 C521.116,60.29 524.379,59.470 525.999,61.0 C530.864,65.590 533.965,72.567 537.999,78.0 C542.714,84.347 549.706,90.100 554.0,96.999 C556.915,101.684 556.657,106.398 558.999,112.0 C564.340,124.771 572.976,136.600 579.0,149.0 C579.666,152.666 580.333,156.333 581.0,160.0 C583.741,166.632 589.25,174.465 591.999,181.0 C592.999,183.999 594.0,187.0 595.0,190.0 C597.902,194.480 603.392,198.425 606.0,202.999 C616.58,220.646 625.381,236.244 636.999,252.0 C638.935,254.624 643.377,256.922 645.999,259.0 C650.954,262.924 658.1,269.74 661.999,274.0 C662.333,274.999 662.666,276.0 663.0,276.999 C664.999,277.666 667.0,278.333 669.0,278.999 C674.516,282.477 679.754,287.822 685.0,292.0 C687.391,293.904 688.130,297.486 690.0,299.999 C699.971,313.406 712.266,328.553 718.999,345.0 C721.356,350.756 720.742,355.48 723.0,361.0 C731.578,383.617 741.92,408.476 747.0,433.999 C747.0,438.666 747.0,443.333 747.0,448.0 C748.9,451.810 751.261,456.885 750.0,462.999 C749.532,465.265 748.72,471.181 749.0,474.999 C750.992,483.204 754.64,495.997 753.0,504.0 C752.101,510.751 747.760,530.502 749.0,536.999 C750.709,545.962 757.394,553.370 760.0,561.999 C766.162,582.415 761.448,606.957 756.0,626.0 C754.250,632.113 755.999,637.32 755.0,642.0 C753.932,647.307 756.106,654.776 757.0,658.999 C756.666,665.332 756.333,671.667 756.0,677.999 C758.666,689.735 762.777,710.307 759.0,725.0 C755.165,739.914 746.610,753.907 741.0,766.999 C737.712,774.672 737.770,781.500 734.0,788.999 C731.123,794.721 725.479,802.51 723.0,808.0 C722.666,809.999 722.333,812.0 722.0,813.999 C717.247,821.877 709.309,827.878 704.0,834.999 C692.926,849.853 680.304,865.584 665.0,875.999 C651.448,885.223 635.173,887.842 620.0,895.999 C614.82,899.181 605.675,905.936 599.0,907.999 C596.252,908.849 589.141,907.789 583.999,908.999 C556.846,915.392 535.557,913.842 504.999,907.999 C498.333,908.999 491.665,910.0 484.999,910.999 C473.759,909.138 455.225,909.762 443.999,907.0 C433.545,904.427 420.885,908.71 414.999,907.0 C396.335,907.0 377.664,907.0 359.0,907.0 C338.451,902.583 311.343,906.532 287.999,901.999 C278.444,900.144 263.842,905.920 250.999,902.999 C235.773,899.537 216.28,900.563 200.0,898.0 C195.240,897.238 187.3,899.736 179.999,898.0 C162.939,893.769 145.718,889.864 130.0,884.999 C126.0,884.666 121.999,884.333 117.999,884.0 C111.620,881.135 103.979,875.105 97.999,871.999 C92.480,869.133 88.24,869.271 82.999,865.999 C78.970,863.376 75.666,858.50 72.0,854.999 C66.756,850.637 59.157,847.347 54.999,841.999 C44.565,828.579 35.739,815.353 27.0,799.999 C22.893,792.785 15.477,786.241 11.999,778.0 C5.970,763.709 -2.984,721.637 2.0,702.999 C3.844,696.101 8.702,673.902 6.999,663.0 C6.428,659.339 12.256,648.686 13.999,643.999 C14.333,640.0 14.666,635.999 14.999,631.999 C18.58,622.837 25.166,612.649 28.999,603.999 C33.909,592.924 39.693,584.280 43.999,573.999 C46.375,568.330 45.376,563.740 47.999,557.999 C49.554,554.597 54.628,551.707 56.0,548.0 C56.333,545.0 56.666,541.999 56.999,538.999 C58.678,535.595 62.623,531.923 64.0,527.999 C64.333,525.333 64.666,522.666 64.999,520.0 C66.487,517.80 71.427,513.139 72.999,509.999 C74.968,506.71 73.614,502.530 76.0,499.0 C78.563,495.206 84.885,489.711 86.999,485.999 C87.333,484.0 87.666,481.999 88.0,479.999 C89.737,476.958 95.344,474.777 97.0,472.0 C97.666,468.666 98.333,465.332 98.999,462.0 C104.784,448.754 109.569,433.334 113.0,419.999 C112.666,417.333 112.333,414.666 111.999,412.0 C113.496,406.741 116.541,397.547 117.999,391.999 C119.539,386.144 118.60,382.149 119.999,377.0 C122.694,369.848 128.742,361.825 130.999,354.999 C133.804,346.520 131.966,340.198 134.999,333.0 C135.920,330.814 138.855,329.92 139.999,327.0 C144.361,319.26 145.640,310.53 150.0,301.999 C155.673,291.521 165.394,281.963 171.0,271.0 C173.288,266.524 176.855,256.994 177.999,253.0 C177.999,250.0 177.999,246.999 177.999,244.0 C179.469,239.528 184.54,234.668 185.999,230.999 C186.333,228.333 186.666,225.666 187.0,223.0 C187.396,222.40 189.586,221.599 189.999,221.0 C190.333,218.666 190.666,216.333 191.0,214.0 C192.136,210.849 196.91,206.821 196.999,204.0 C196.666,202.333 196.333,200.666 196.0,199.0 C197.61,194.979 202.861,189.389 204.999,186.0 C206.548,183.544 205.755,180.854 207.0,177.999 C209.656,171.905 215.510,165.566 218.999,160.0 C219.666,158.0 220.333,155.999 220.999,154.0 C222.999,153.0 225.0,151.999 226.999,151.0 C230.768,146.42 230.623,139.244 233.999,133.999 C235.999,132.0 238.0,129.999 240.0,128.0 C240.999,124.667 242.0,121.333 242.999,117.999 C244.933,114.344 250.101,110.541 251.999,107.0 C251.999,105.666 251.999,104.333 251.999,103.0 C253.393,100.297 256.890,99.53 258.999,96.999 C262.265,93.822 263.236,89.814 266.0,86.0 C269.666,82.667 273.333,79.333 277.0,76.0 C278.653,73.215 277.866,70.108 279.999,68.0 C281.333,67.666 282.666,67.333 283.999,67.0 C285.666,64.0 287.333,60.999 288.999,57.999 C294.144,51.92 302.868,46.997 308.999,41.0 C314.666,35.0 320.333,28.999 326.0,23.0 C337.481,14.622 352.413,6.899 366.999,2.0 C371.664,0.432 377.345,2.291 381.0,0.0 Z"/>
</svg>