<svg 
 xmlns="http://www.w3.org/2000/svg"
 xmlns:xlink="http://www.w3.org/1999/xlink"
 width="635px" height="346px">
<path fill-rule="evenodd"  opacity="0.2" fill="rgb(0, 0, 0)"
 d="M431.999,1.0 C444.722,4.909 462.896,-1.344 476.999,2.0 C487.120,4.400 498.213,8.348 507.999,11.0 C511.999,11.0 516.0,11.0 519.999,11.0 C528.416,13.592 539.704,17.495 547.999,20.0 C549.999,20.0 552.0,20.0 553.999,20.0 C572.90,27.221 588.192,38.237 601.999,49.999 C602.187,50.160 616.999,70.0 616.999,70.0 C616.999,71.666 616.999,73.333 616.999,74.999 C618.814,78.250 625.326,81.418 626.999,85.0 C630.206,91.862 628.595,100.298 630.999,107.999 C637.677,129.383 634.250,151.398 625.999,170.999 C620.552,183.943 613.353,196.685 607.999,208.999 C603.89,220.297 601.259,230.420 594.999,240.0 C591.324,245.624 586.934,246.231 582.999,249.999 C579.652,253.206 577.817,258.251 574.999,262.0 C571.333,265.333 567.666,268.666 563.999,271.999 C547.726,288.268 529.1,303.613 509.0,316.0 C491.457,326.863 468.743,334.149 446.999,339.999 C440.333,340.666 433.665,341.333 426.999,341.999 C416.456,344.346 398.93,346.329 384.999,343.999 C378.224,342.794 365.324,343.468 356.0,341.0 C341.979,337.288 326.934,332.757 312.999,329.0 C299.832,325.449 287.748,327.488 274.0,324.0 C255.737,319.366 237.553,314.399 221.0,307.0 C210.283,302.209 201.115,293.264 191.999,287.0 C185.438,282.490 177.550,280.764 171.0,275.999 C163.54,270.220 154.550,263.529 145.999,258.0 C141.348,254.991 136.653,255.233 131.0,253.0 C124.991,250.626 117.23,245.564 111.0,242.999 C95.679,236.476 80.400,233.383 67.0,224.999 C61.485,221.549 58.848,214.821 54.0,211.0 C49.866,207.742 44.980,206.271 42.0,201.999 C38.563,197.74 34.447,191.297 32.0,186.0 C30.146,181.987 31.140,178.484 29.0,174.999 C20.355,160.925 9.759,144.874 4.0,128.0 C-4.715,102.467 2.77,78.364 13.0,60.0 C14.991,56.652 19.749,55.13 22.0,52.0 C31.539,39.228 53.732,30.358 70.0,24.999 C79.332,23.666 88.667,22.333 98.0,20.999 C114.665,20.999 131.335,20.999 147.999,20.999 C155.169,19.413 166.597,21.866 175.0,20.0 C204.588,13.426 238.785,18.633 270.0,12.999 C275.781,11.956 285.26,13.668 288.999,12.999 C301.641,10.872 318.767,12.697 328.999,15.0 C341.469,17.805 355.878,12.533 364.999,10.0 C383.324,4.909 405.327,6.511 422.999,2.0 C426.337,1.148 429.801,2.389 431.999,1.0 Z"/>
</svg>