<svg 
 xmlns="http://www.w3.org/2000/svg"
 xmlns:xlink="http://www.w3.org/1999/xlink"
 width="543px" height="481px">
<path fill-rule="evenodd"  opacity="0.2" fill="rgb(0, 0, 0)"
 d="M182.0,0.999 C232.425,0.255 266.602,15.439 301.999,29.0 C314.851,33.923 328.14,38.99 340.0,43.0 C342.666,43.333 345.333,43.666 347.999,44.0 C348.333,44.999 348.666,46.0 348.999,47.0 C350.666,47.0 352.333,47.0 353.999,47.0 C356.507,47.948 360.393,51.19 363.0,51.999 C364.666,51.999 366.333,51.999 368.0,51.999 C371.647,54.80 377.909,58.261 381.999,60.0 C383.999,60.0 386.0,60.0 387.999,60.0 C389.654,60.716 392.354,64.244 393.999,65.0 C395.666,65.0 397.333,65.0 398.999,65.0 C404.198,67.615 413.687,76.479 418.999,80.0 C443.403,96.172 462.350,107.883 479.0,132.0 C486.842,143.360 499.898,154.177 504.999,168.0 C504.999,169.666 504.999,171.333 504.999,173.0 C506.808,178.77 510.978,183.806 513.0,189.0 C515.634,195.768 514.374,201.741 516.999,208.0 C519.727,214.503 521.596,222.541 525.0,229.999 C525.506,231.110 528.793,233.547 528.999,234.999 C530.315,244.246 530.654,256.875 533.999,267.999 C542.150,295.102 546.511,331.119 537.0,360.999 C524.98,401.529 492.272,435.404 458.999,456.0 C424.139,477.578 369.319,479.992 316.0,479.999 C284.772,480.4 253.151,480.207 220.999,479.999 C203.1,479.666 184.998,479.333 166.999,478.999 C138.426,472.267 118.399,467.325 95.0,457.0 C81.145,450.886 65.494,443.388 56.999,431.999 C51.585,424.739 44.828,416.233 40.999,407.999 C38.664,402.978 39.619,398.413 37.0,393.999 C28.314,379.362 18.140,363.76 13.0,345.0 C9.561,332.910 11.934,322.845 9.0,310.0 C5.165,293.218 4.171,276.187 4.0,258.0 C3.944,252.89 0.21,246.274 1.0,242.0 C1.389,240.299 4.389,236.565 4.999,233.999 C5.737,230.900 2.720,225.449 3.0,225.0 C3.999,224.666 5.0,224.333 5.999,224.0 C5.666,220.667 5.333,217.332 4.999,213.999 C6.279,210.13 8.707,200.566 9.999,195.999 C10.333,191.0 10.666,185.999 10.999,180.999 C13.473,173.173 17.875,162.770 17.999,153.0 C16.925,151.506 21.866,144.930 22.999,141.999 C28.88,128.837 33.266,117.750 38.999,105.999 C59.199,64.601 92.679,35.978 131.999,13.999 C140.446,9.278 157.783,5.504 166.999,1.999 C171.642,0.234 178.425,3.201 182.0,0.999 Z"/>
</svg>