<svg 
 xmlns="http://www.w3.org/2000/svg"
 xmlns:xlink="http://www.w3.org/1999/xlink"
 width="237px" height="220px">
<path fill-rule="evenodd"  opacity="0.2" fill="rgb(0, 0, 0)"
 d="M134.999,0.0 C181.781,0.734 208.76,17.445 223.999,46.999 C233.183,64.44 232.209,87.437 236.999,108.999 C231.117,127.826 227.559,152.759 219.999,170.0 C216.669,177.595 210.210,196.695 204.999,200.999 C193.495,210.504 176.904,216.237 160.0,219.999 C157.0,219.666 153.999,219.333 151.0,218.999 C129.660,218.352 114.469,215.322 95.999,209.999 C85.852,207.76 77.100,207.905 67.0,204.999 C55.414,201.667 42.258,197.408 32.0,192.999 C27.681,191.144 15.986,187.239 14.0,183.999 C12.550,181.636 13.444,179.174 12.0,177.0 C8.74,171.94 -3.28,154.966 2.0,140.999 C2.666,140.666 3.333,140.333 3.999,140.0 C3.999,137.333 3.999,134.666 3.999,131.999 C4.666,131.666 5.333,131.333 6.0,130.999 C6.333,127.333 6.666,123.666 7.0,120.0 C28.146,74.747 40.479,48.565 80.0,21.0 C84.226,18.52 89.579,12.281 94.0,9.999 C98.592,7.629 103.32,8.633 108.0,7.0 C112.966,5.366 118.572,2.377 124.0,1.0 C127.851,0.22 132.361,1.641 134.999,0.0 Z"/>
</svg>