<svg 
 xmlns="http://www.w3.org/2000/svg"
 xmlns:xlink="http://www.w3.org/1999/xlink"
 width="392px" height="639px">
<path fill-rule="evenodd"  fill="rgb(0, 0, 0)"
 d="M42.0,243.0 L17.0,195.999 L0.0,141.999 L6.0,90.0 L26.0,60.0 L56.0,37.999 L100.0,17.999 L146.999,6.0 L199.999,0.0 L249.0,4.0 L288.999,24.0 L321.0,55.0 L339.999,95.0 L342.0,149.0 L330.999,200.0 L312.0,249.0 L319.999,258.0 L339.999,250.999 L363.0,255.999 L380.999,271.999 L391.999,310.999 L378.0,342.0 L347.0,368.0 L318.999,372.0 L291.0,403.999 L262.999,442.0 L250.999,473.0 L246.999,531.0 L245.0,577.999 L255.999,607.0 L283.999,628.999 L272.999,638.999 L162.0,637.0 L152.0,627.999 L183.999,607.999 L189.999,577.999 L183.999,532.0 L160.0,497.0 L126.999,508.999 L89.0,503.999 L54.999,474.999 L23.999,435.999 L7.999,393.999 L23.999,365.999 L63.0,347.0 L108.0,339.999 L163.999,350.999 L189.999,363.0 L174.999,334.999 L122.999,315.999 L84.999,286.999 L42.0,243.0 Z"/>
</svg>