<svg 
 xmlns="http://www.w3.org/2000/svg"
 xmlns:xlink="http://www.w3.org/1999/xlink"
 width="372px" height="466px">
<path fill-rule="evenodd"  fill="rgb(0, 0, 0)"
 d="M14.0,228.0 L40.0,237.999 L15.0,120.999 L19.0,70.999 L27.0,59.999 L0.0,33.999 L33.0,40.999 L41.0,22.0 L51.0,34.999 L50.0,47.0 L176.999,0.0 L199.0,1.0 L271.0,29.0 L277.0,15.0 L291.999,3.999 L281.0,33.999 L291.999,29.999 L291.999,40.0 L340.999,73.999 L345.999,95.999 L345.999,129.0 L363.999,118.0 L356.999,147.999 L371.999,147.999 L344.999,166.999 L343.999,198.999 L346.999,233.0 L335.999,255.999 L305.999,281.0 L271.0,300.0 L249.0,329.0 L225.0,345.0 L180.999,361.0 L164.0,370.0 L156.999,386.999 L162.0,403.0 L193.999,409.0 L207.999,416.0 L201.999,428.0 L191.999,443.0 L217.0,450.999 L237.999,460.0 L162.999,466.0 L98.0,453.0 L132.0,448.0 L152.999,441.0 L156.0,432.0 L132.999,418.0 L126.0,407.0 L132.0,392.0 L146.0,378.0 L154.0,364.0 L154.999,345.0 L128.0,311.999 L50.0,279.999 L37.0,267.0 L9.0,254.999 L29.0,249.0 L14.0,228.0 Z"/>
</svg>